<?xml version="1.0" encoding="UTF-8"?>
<svg xmlns="http://www.w3.org/2000/svg" version="1.1" viewBox="0 0 500 500">
  <defs>
    <style>
      .cls-1 {
        fill: #e17d2e;
      }
    </style>
  </defs>
  <!-- Generator: Adobe Illustrator 28.6.0, SVG Export Plug-In . SVG Version: 1.2.0 Build 709)  -->
  <g>
    <g id="Camada_1">
      <g id="Camada_1-2" data-name="Camada_1">
        <g>
          <path class="cls-1" d="M162.8,449.5c7.2,5.9,16.1,9.9,25.7,10.9,35.4,5.9,67.6-17.8,75.6-55.5.8-5,1.6-10.9,1.6-16.9v-58.5c0-4-1.6-6.9-4-9.9-13.7-14.9-27.4-29.7-41.8-44.6-3.2-3-4-5.9-4-10.9v-78.3c0-5-.8-7.9-4-10.9-.8,0-1.6-2-2.4-3-6.4-4-5.6-10.9-4.8-17.8,0-4,3.2-5,5.6-2,6.4,5.9,12.1,12.9,18.5,19.8,1.6,2,1.6,5,1.6,6.9v80.3c0,4,.8,6.9,3.2,8.9,13.7,14.9,27.4,29.7,41,44.6,3.2,4,4.8,6.9,4.8,11.9v65.4c0,35.7-20.1,67.4-51.5,79.3-28.2,10.9-53.9,5.9-78-13.9-1.6-1-2.4-2-4-4-1.6-2-2.4-4,0-5.9,7.2-7.9,14.5-14.9,21.7-22.8,2.4-3,4.8-1,6.4,0,8.9,7.9,18.5,10.9,29.8,9.9,18.5-1,34.6-16.9,37-36.7v-69.4c0-3-.8-5.9,2.4-6.9,2.4-1,4,2,5.6,4,4,3,5.6,7.9,5.6,12.9v51.6c0,28.8-17.7,51.6-42.6,57.5-12.9,3-24.9,2-37-5-3.2-2-5.6-2-8,1-1.6,2-3.2,3-4,5.9v2Z"/>
          <path class="cls-1" d="M248.9,75.7h154.5c10.5,0,18.5,4,25.7,11.9,9.7,10.9,11.3,27.8,4.8,41.6-7.2,13.9-20.9,20.8-36.2,17.8-13.7-3-24.1-14.9-25.7-29.7q0-5,4-5h3.2c3.2,0,4.8,0,5.6,5,3.2,13.9,15.3,21.8,27.4,16.9,9.7-4,14.5-12.9,13.7-23.8-.8-9.9-8-17.8-17.7-18.8H89.6c-10.5,1-18.5,10.9-18.5,21.8s7.2,20.8,17.7,22.8,20.1-5,23.3-14.9c0-2,0-5,1.6-5.9,1.6-2,4.8,0,7.2,0q4,0,4,5c-1.6,14.9-12.9,27.8-27.4,30.7-15.3,2-29.8-5.9-35.4-20.8-9.7-22.8,5.6-49.6,29.8-49.6h156.9v-5Z"/>
          <path class="cls-1" d="M90.4,168.9c-2.4,2-3.2,5-4,6.9-17.7,33.7-34.6,67.4-52.3,101.1-2.7,4.6-6.7,6.6-12.1,5.9,22.5-44.6,45.1-88.2,68.4-132.9,23.3,44.6,45.9,88.2,68.4,132.9q-8,2-11.3-4c-17.7-33.7-35.4-68.4-52.3-102.1-.8-2-1.6-5-4-6.9l-.8-1Z"/>
          <path class="cls-1" d="M339,282.9c22.5-43.6,45.1-88.2,68.4-132.9,22.5,44.6,45.1,88.2,67.6,131.9-7.2,3-8,2-11.3-4-17.7-33.7-35.4-68.4-52.3-102.1-1.6-2-2.4-5-4-6.9-1.6,2-2.4,4-4,5.9-17.7,33.7-35.4,68.4-52.3,102.1-2.1,4.6-6.2,6.3-12.1,5v1Z"/>
          <path class="cls-1" d="M248.9,120.4h-88.5c-2.4,0-3.2-1-3.2-4,0-8.9,0-9.9,8-9.9h172.2c2.4,0,3.2,1,3.2,4,0,10.9,0,9.9-8,9.9h-83.7Z"/>
          <path class="cls-1" d="M22,290.9h136.8c-2.4,6.9-5.6,11.9-9.7,16.9-1.6,2-4,1-6.4,1H37.3c-3.2,0-6.4,0-8-4-2.4-4-4.8-7.9-7.2-13.9h0Z"/>
          <path class="cls-1" d="M339,290.9h135.2c-1.6,6.9-4.8,11.9-8.9,15.9-1.6,2-4,1-6.4,1h-106.2c-4,0-6.4-1-8-4-2.4-4-4.8-7.9-6.4-12.9h.8Z"/>
          <path class="cls-1" d="M205.5,130.3c4.8-1,10.5,0,15.3,0s3.2,1,4,3c8.9,9.9,17.7,18.8,26.6,28.8,2.4,2,3.2,5,3.2,7.9v97.2c0,4-3.2,5-5.6,2-4.8-4-8-8.9-8-15.9v-76.3c0-4-.8-6.9-4-9.9-9.7-9.9-18.5-19.8-27.4-29.7-1.6-2-3.2-3-4-5.9v-1Z"/>
          <path class="cls-1" d="M265.8,230.4v-49.6c0-4,.8-6.9,4-9.9,4.8-5,9.7-9.9,14.5-15.9s2.4-3,4-2c2.4,0,1.6,3,2.4,5,0,6.9,0,11.9-5.6,15.9-5.6,4-6.4,9.9-6.4,15.9v97.2c0,3,1.6,6.9-1.6,7.9-3.2,2-4.8-2-6.4-4-4-3-4.8-6.9-4-11.9v-49.6h0l-.8,1Z"/>
          <path class="cls-1" d="M229.6,351.4v40.6c0,14.9-9.7,26.8-22.5,29.7h-1.6c-2.4,0-5.6,2-8-1-1.6-3-.8-6.9,0-9.9,0-2,2.4-2,3.2-2,11.3-3,15.3-7.9,15.3-20.8v-84.3c0-3-1.6-6.9,1.6-7.9,3.2-2,4.8,2,6.4,4,3.2,3,4.8,5.9,4,10.9v40.6h1.6Z"/>
          <path class="cls-1" d="M42.9,318.6h94.9c-20.1,22.8-66.8,26.8-94.9,0Z"/>
          <path class="cls-1" d="M359.1,318.6h94.1c-19.3,21.8-64.4,27.8-94.1,0Z"/>
          <path class="cls-1" d="M248.1,46h42.6q4.8,0,5.6,5.9v3c0,4-1.6,5-4.8,5h-86.9c-.8,0-2.4,0-2.4-2v-8.9c0-1,.8-2,2.4-2h44.3l-.8-1Z"/>
          <path class="cls-1" d="M290.7,130.3c-8.9,8.9-16.1,16.9-23.3,24.8-2.4,2-4,2-6.4,0-.8-1-2.4-2-3.2-3-2.4-2-1.6-4,0-6.9,4-4,8-8.9,12.1-12.9.8-1,2.4-2,3.2-2h17.7Z"/>
        </g>
      </g>
    </g>
  </g>
</svg>