<?xml version="1.0" encoding="UTF-8"?>
<svg id="Camada_2" xmlns="http://www.w3.org/2000/svg" viewBox="0 0 22.13 17.8">
  <defs>
    <style>
      .cls-1 {
        fill: #9f9370;
      }
    </style>
  </defs>
  <g id="Camada_1-2" data-name="Camada_1">
    <g>
      <path class="cls-1" d="M9.79,15.02c-.68-.03-1.35-.07-2.03-.1-.27-.01-.44-.17-.43-.39,0-.22.19-.37.46-.36,1.21.07,2.41.11,3.62.12.35,0,.68-.02.99-.2.37-.21.39-.57.02-.8-.49-.31-1.05-.43-1.62-.49-1.23-.13-2.41-.43-3.55-.92-1.12-.48-2.2-.31-3.28.16-.83.36-1.67.69-2.58.79-.32.04-.63.07-.95.09-.25.02-.43-.13-.44-.35-.01-.21.13-.37.37-.39.49-.04.98-.08,1.46-.19.57-.13,1.12-.34,1.64-.59,1.55-.73,3.09-.74,4.64-.02.31.14.64.23.96.35.11.04.19.02.29-.05.92-.69,1.84-1.39,2.88-1.9.31-.15.63-.26.99-.17.18.05.39.1.49.25.19.28.38.19.61.08.38-.17.79-.3,1.22-.25.38.04.65.24.77.62.04.13.07.15.2.11.32-.09.65-.15.99-.08.31.07.58.21.72.5.07.14.14.04.2.02.4-.19.8-.17,1.18.05.48.28.65.72.49,1.25-.09.29-.24.53-.46.75-.42.41-.9.75-1.42,1.02-1.36.68-2.64,1.49-3.94,2.27-.71.43-1.47.77-2.24,1.09-1.38.57-2.8.62-4.24.31-.84-.19-1.68-.4-2.52-.57-.99-.2-2-.17-3-.18-.42,0-.84.01-1.26.02-.25,0-.43-.15-.43-.36,0-.22.15-.37.41-.38.03,0,.06,0,.09,0,2.16-.11,4.29.04,6.38.64.98.28,2,.4,3.03.22.87-.16,1.67-.52,2.46-.91.6-.29,1.18-.63,1.74-.99,1.09-.7,2.24-1.31,3.38-1.93.38-.21.72-.46,1.03-.76.08-.08.16-.17.21-.28.06-.15.17-.31,0-.47-.16-.16-.35-.2-.55-.09-.39.2-.77.4-1.15.62-.98.55-1.97,1.1-2.95,1.66-.1.06-.2.13-.33.11-.17-.02-.29-.12-.33-.29-.05-.19.04-.33.2-.43.59-.34,1.19-.68,1.79-1.01.47-.26.94-.52,1.4-.78.06-.03.16-.04.14-.16-.02-.11-.1-.12-.19-.14-.22-.07-.43-.02-.64.04-.83.25-1.56.7-2.27,1.17-.34.23-.67.48-1.01.72-.1.07-.13.14-.09.27.18.61-.04,1.13-.61,1.43-.41.22-.85.29-1.31.29-.55,0-1.11,0-1.66,0,0,0,0-.01,0-.02ZM12.14,12.32c.17.08.34.13.48.22.13.08.21.07.32-.02.8-.62,1.63-1.19,2.53-1.66.08-.04.2-.04.15-.2-.05-.13-.1-.23-.25-.2-.1.02-.2.03-.3.05-.66.17-1.21.55-1.76.92-.4.27-.79.57-1.16.89ZM10.26,11.96c.31.05.59.08.86.13.07.01.12,0,.17-.05.6-.52,1.23-1,1.89-1.44.13-.09.08-.16-.02-.19-.15-.05-.3-.06-.45.01-.23.12-.46.22-.68.35-.6.36-1.18.74-1.76,1.19Z"/>
      <path class="cls-1" d="M12.13,3.52c-.39-.02-1.03-.02-1.67-.01-.29,0-.55.08-.8.23-.29.18-.3.53-.02.72.43.29.92.41,1.42.49.88.15,1.78.2,2.63.51.44.16.88.31,1.31.48.92.36,1.82.31,2.73-.05.77-.3,1.52-.65,2.32-.83.53-.12,1.06-.19,1.59-.21.29-.01.47.14.47.37,0,.22-.17.37-.44.38-1.17.03-2.24.41-3.29.86-.82.35-1.66.56-2.57.45-.56-.07-1.09-.26-1.61-.46-.38-.14-.76-.28-1.14-.41-.12-.04-.22-.03-.33.06-.89.68-1.79,1.35-2.8,1.85-.35.18-.72.3-1.12.18-.23-.07-.44-.18-.57-.38-.08-.12-.14-.09-.23-.04-.32.16-.66.28-1.01.34-.63.11-.99-.08-1.23-.67-.05-.12-.1-.06-.16-.05-.3.08-.59.13-.9.1-.36-.04-.66-.18-.84-.51-.07-.14-.13-.05-.19-.02-.42.19-.83.18-1.22-.06-.46-.28-.62-.71-.47-1.22.08-.27.22-.51.43-.71.45-.46.98-.82,1.55-1.11,1.19-.6,2.34-1.29,3.48-1.99.96-.59,1.97-1.09,3.04-1.46,1.3-.46,2.61-.41,3.94-.13.87.18,1.72.44,2.59.58,1.05.17,2.11.14,3.17.14.3,0,.59,0,.89,0,.27,0,.44.14.44.37,0,.21-.17.37-.42.38-2.07.06-4.13.03-6.14-.57-.69-.21-1.41-.32-2.14-.36-1.1-.07-2.1.26-3.09.69-1.22.54-2.32,1.26-3.45,1.95-.76.46-1.56.83-2.33,1.28-.36.21-.69.45-.99.74-.11.11-.19.23-.24.37-.04.12-.09.25.03.37.13.12.27.2.44.14.15-.05.3-.13.44-.21,1.22-.68,2.43-1.35,3.65-2.03.05-.03.11-.06.16-.09.25-.13.45-.1.57.1.11.2.04.41-.19.54-.6.34-1.2.68-1.81,1.02-.45.25-.9.5-1.34.75-.06.04-.15.05-.14.16.02.1.1.12.17.13.24.06.48.02.71-.06,1.02-.33,1.9-.92,2.76-1.53.04-.03.07-.06.11-.08.32-.19.51-.38.4-.84-.12-.48.18-.87.61-1.1.34-.19.72-.3,1.11-.3,1.29-.02,2.59.05,3.88.11.03,0,.06,0,.09,0,.24.03.39.19.38.39,0,.22-.18.36-.44.35-.66-.02-1.32-.05-2.23-.09ZM10,5.49c-.18-.09-.35-.15-.5-.24-.12-.08-.2-.05-.31.03-.82.63-1.67,1.22-2.6,1.69-.09.04-.11.08-.08.18.04.15.11.23.28.2.18-.03.35-.06.52-.13,1-.4,1.84-1.06,2.69-1.73ZM11.84,5.87c-.12-.09-.25-.05-.35-.09-.39-.13-.69-.04-1,.25-.46.43-.98.79-1.5,1.14-.05.03-.13.05-.11.13.01.08.09.09.16.11.11.03.23.04.34-.01.89-.39,1.67-.97,2.47-1.54Z"/>
      <path class="cls-1" d="M7.09,16.05c-.38-.08-.78-.18-1.17-.26-.72-.15-1.44-.32-2.18-.41-.67-.08-1.34.02-2,.08-.19.02-.39.05-.58.07-.13.01-.24,0-.25-.16-.01-.15.09-.19.22-.21,1.47-.25,2.93-.22,4.38.16.53.14,1.08.24,1.62.36.12.03.21.08.2.22-.01.12-.1.17-.22.16Z"/>
      <path class="cls-1" d="M18.97,2.82c-.81.03-1.61-.2-2.43-.36-.49-.09-.97-.21-1.46-.31-.09-.02-.19-.02-.25-.11-.04-.06-.05-.14,0-.2.06-.09.14-.1.24-.08.56.13,1.13.22,1.68.37,1.37.37,2.75.38,4.14.15.14-.02.28-.04.31.14.03.18-.12.21-.25.23-.65.08-1.3.16-1.99.17Z"/>
    </g>
  </g>
</svg>