<?xml version="1.0" encoding="UTF-8"?>
<svg id="Camada_2" xmlns="http://www.w3.org/2000/svg" viewBox="0 0 46.95 42.24">
  <defs>
    <style>
      .cls-1 {
        fill: #9f9370;
      }
    </style>
  </defs>
  <g id="Camada_1-2" data-name="Camada_1">
    <g>
      <path class="cls-1" d="M4.33,19.92c-.63.25-1.28.35-1.94.18-1.29-.33-2.09-1.15-2.33-2.46-.23-1.27.23-2.31,1.28-3.04,2.46-1.72,4.94-3.41,7.41-5.11C12.99,6.56,17.24,3.64,21.48.72c1.4-.96,2.59-.96,4,.01,3.23,2.22,6.46,4.44,9.78,6.73,0-.72,0-1.37,0-2.02,0-.2-.19-.13-.3-.15-.81-.14-1.2-.57-1.22-1.38-.02-.65-.02-1.3,0-1.95.02-.88.53-1.38,1.41-1.39,2.27,0,4.55,0,6.82,0,.88,0,1.38.51,1.39,1.39,0,.65,0,1.3,0,1.95,0,.79-.4,1.25-1.17,1.35-.29.04-.37.14-.37.42.01,1.98.01,3.96,0,5.94,0,.29.12.43.34.58,1.19.81,2.4,1.61,3.56,2.47,1.02.75,1.41,1.8,1.16,3.04-.26,1.26-1.06,2.05-2.3,2.37-.66.17-1.32.07-2-.19,0,.2,0,.36,0,.51,0,5.21,0,10.42,0,15.63,0,.35.05.52.44.62,1.44.37,2.42,1.64,2.47,3.13.01.32.01.65,0,.97-.03.82-.59,1.4-1.4,1.46-.13,0-.26,0-.39,0-13.47,0-26.95,0-40.42,0-1.28,0-1.8-.52-1.8-1.8,0-.49,0-.98.14-1.45.38-1.25,1.22-2.04,2.48-2.37.2-.05.31-.09.31-.33,0-5.42,0-10.84,0-16.27,0-.03-.02-.05-.05-.11ZM31.45,36.51c3.05,0,6.1,0,9.16,0,.4,0,.51-.08.51-.5-.02-5.55-.01-11.1,0-16.66,0-.32-.08-.52-.36-.71-5.52-3.79-11.04-7.58-16.55-11.38-.57-.4-.85-.4-1.42-.01-5.56,3.82-11.11,7.65-16.67,11.46-.2.14-.27.28-.27.51,0,5.63,0,11.27,0,16.9,0,.3.08.38.38.38,1.05-.02,2.11-.03,3.17,0,.41.01.54-.08.54-.52-.02-4.43-.01-8.86-.01-13.3,0-1.56.88-2.43,2.45-2.43,2.34,0,4.68,0,7.01,0,1.59,0,2.46.88,2.46,2.47,0,4.43,0,8.86,0,13.3,0,.38.08.48.47.48,3.05-.02,6.1,0,9.16,0ZM43.85,18.69c.83,0,1.45-.5,1.6-1.27.15-.79-.23-1.32-.86-1.75-6.65-4.57-13.3-9.15-19.95-13.73-.9-.62-1.44-.62-2.35.01C16.12,6.2,9.95,10.44,3.78,14.69c-.56.39-1.13.76-1.68,1.17-.49.37-.72.88-.61,1.5.11.65.49,1.09,1.12,1.28.59.18,1.1-.03,1.59-.37,5.82-4.01,11.64-8.02,17.47-12.03,1.43-.98,2.2-.97,3.63,0,5.81,4,11.62,8,17.43,12,.35.24.71.47,1.12.44ZM20.36,29.38c0-2.24,0-4.48,0-6.72,0-.67-.24-.92-.9-.92-2.4,0-4.8,0-7.2,0-.64,0-.88.25-.88.89,0,4.49,0,8.99,0,13.48,0,.32.08.4.4.4,2.73-.01,5.45-.01,8.18,0,.34,0,.43-.08.43-.42-.02-2.24,0-4.48,0-6.72ZM23.47,40.8v-.02c6.58,0,13.15,0,19.73,0,.19,0,.39-.01.58,0,.18,0,.25-.05.26-.25.12-1.87-1-2.57-2.35-2.56-12.14.03-24.29.02-36.43.02-1.6,0-2.31.72-2.34,2.31,0,.43.1.53.53.53,6.67-.01,13.35-.01,20.02-.01ZM40.36,10.97c0-1.86,0-3.61,0-5.37,0-.27-.1-.32-.34-.32-.99.01-1.98.01-2.97,0-.25,0-.33.07-.33.33.01.86,0,1.72,0,2.58,0,.15,0,.28.15.38,1.13.77,2.26,1.55,3.48,2.39ZM38.58,3.82c.65,0,1.3.01,1.95,0,.45-.01,1.04.2,1.3-.09.22-.25.05-.83.08-1.27.03-.33-.06-.44-.42-.43-1.95.02-3.89.02-5.84,0-.32,0-.48.06-.44.42.03.32.03.65,0,.97-.03.32.08.42.41.41.99-.02,1.98,0,2.97,0Z"/>
      <path class="cls-1" d="M31.36,31.11c-1.3,0-2.6,0-3.9,0-1.45,0-2.29-.85-2.29-2.3,0-2.08,0-4.16,0-6.23,0-1.48.85-2.31,2.34-2.31,2.55,0,5.1,0,7.65,0,1.47,0,2.32.86,2.33,2.33,0,2.06,0,4.12,0,6.19,0,1.48-.85,2.33-2.32,2.33-1.27,0-2.53,0-3.8,0ZM34.04,26.42c-.54,0-1.07.01-1.61,0-.29-.01-.4.06-.39.37.02.83.02,1.66,0,2.48,0,.32.1.38.39.37.94-.02,1.88,0,2.82,0,.53,0,.75-.21.75-.73.01-.71-.01-1.43.01-2.14,0-.3-.12-.35-.38-.34-.54.01-1.07,0-1.61,0ZM34,24.95c.55,0,1.1-.01,1.66,0,.26,0,.38-.06.37-.35-.02-.7,0-1.4,0-2.09,0-.55-.22-.77-.77-.78-.96-.01-1.92,0-2.87,0-.27,0-.33.09-.32.34.01.84.02,1.69,0,2.53,0,.33.12.37.4.36.52-.02,1.04,0,1.56,0ZM28.64,24.95c.55,0,1.1-.01,1.65,0,.23,0,.31-.06.3-.3-.01-.88-.01-1.75,0-2.63,0-.23-.06-.31-.3-.31-.97.01-1.95,0-2.92,0-.5,0-.71.22-.72.72-.01.73,0,1.46-.01,2.19,0,.27.1.32.34.32.55-.01,1.1,0,1.65,0ZM28.64,26.42c-.55,0-1.1,0-1.65,0-.24,0-.35.06-.34.32.02.73,0,1.46,0,2.19,0,.5.21.7.72.7.97,0,1.95,0,2.92,0,.24,0,.3-.06.3-.3-.01-.88-.01-1.75,0-2.63,0-.24-.07-.3-.3-.3-.55.01-1.1,0-1.65,0Z"/>
      <path class="cls-1" d="M19.19,28.54c0,.36.01.71,0,1.07-.02.44-.35.74-.75.73-.39-.01-.69-.31-.7-.73-.02-.71-.02-1.43,0-2.14,0-.42.31-.7.7-.71.42-.01.73.27.75.72.02.36,0,.71,0,1.07Z"/>
    </g>
  </g>
</svg>