<?xml version="1.0" encoding="UTF-8"?>
<svg id="Camada_2" xmlns="http://www.w3.org/2000/svg" viewBox="0 0 25.82 25.8">
  <defs>
    <style>
      .cls-1 {
        fill: #9f9370;
      }
    </style>
  </defs>
  <g id="Camada_1-2" data-name="Camada_1">
    <g>
      <path class="cls-1" d="M18.44,9.02c-.02,1.89-.42,3.48-1.33,4.91-.23.36-.17.55.12.8.31.26.59.56.86.86.41.44.79.86,1.51.71.39-.08.74.18,1.03.46,1.47,1.47,2.95,2.93,4.4,4.42,1.09,1.12,1.04,2.68-.06,3.78-1.1,1.1-2.67,1.15-3.78.06-1.49-1.45-2.94-2.93-4.42-4.4-.4-.4-.56-.87-.46-1.42.05-.28-.04-.45-.23-.64-.48-.46-.96-.92-1.41-1.41-.24-.26-.4-.24-.69-.07-5.32,3.2-12.16.39-13.7-5.62C-1.24,5.5,3.5-.3,9.65.01c4.95.25,8.8,4.28,8.79,9ZM9.23,15.54c3.51,0,6.33-2.83,6.33-6.35,0-3.5-2.85-6.33-6.36-6.32-3.48.01-6.3,2.85-6.31,6.33,0,3.5,2.83,6.34,6.34,6.34ZM15.15,17.03s.06-.02.07-.02c.74-.46,1.35-1.06,1.8-1.81.12-.21-.14-.29-.25-.41-.15-.17-.22,0-.29.09-.46.59-.99,1.12-1.58,1.58-.07.06-.24.11-.13.25.11.13.2.29.38.32ZM16.46,18.38c.21.39.48.38.8.17.53-.34.97-.76,1.29-1.3.27-.44.25-.47-.18-.79-.42.86-1.07,1.49-1.91,1.91Z"/>
      <path class="cls-1" d="M10.03,14.53c-2.42.32-4.62-.84-5.65-2.94-.99-2.01-.61-4.55.93-6.07.26.49.51.98.77,1.46.08.14-.02.24-.07.36-1.3,2.58.1,5.22,2.94,5.56.16.02.27.06.34.21.23.46.47.91.73,1.42Z"/>
    </g>
  </g>
</svg>