<?xml version="1.0" encoding="UTF-8"?>
<svg xmlns="http://www.w3.org/2000/svg" version="1.1" viewBox="0 0 50 50">
  <defs>
    <style>
      .cls-1 {
        fill: #3b3b3b;
      }
    </style>
  </defs>
  <!-- Generator: Adobe Illustrator 28.6.0, SVG Export Plug-In . SVG Version: 1.2.0 Build 709)  -->
  <g>
    <g id="Camada_2">
      <g id="Camada_1-2">
        <g>
          <path class="cls-1" d="M.2,50h-.2c0,0,0-.1,0-.2,1.1-4,2.2-8.1,3.3-12.1,0-.4,0-.7-.1-1C.4,31.4-.5,25.8.7,19.9,3.5,6.6,16.1-1.9,29.4.4c13.7,2.3,22.9,15.8,20.1,29.4-3.4,16.2-21.2,24.6-35.9,17-.2,0-.5-.1-.7,0-2.8.7-5.5,1.4-8.2,2.1-1.5.4-3,.8-4.4,1.2h0ZM6,44.1c.2,0,.3,0,.5,0,2.3-.6,4.6-1.2,6.8-1.8.4,0,.7,0,1,.1,4.5,2.7,9.4,3.6,14.5,2.7,9.4-1.7,16.6-9.9,16.9-19.4.2-4.4-.9-8.4-3.3-12.1-4.3-6.7-12.7-10.5-20.5-9.1-4,.7-7.6,2.2-10.6,5-5.6,5.2-7.8,11.6-6.6,19.1.4,2.7,1.5,5.2,3,7.5.2.4.3.7.2,1.1-.3.9-.5,1.8-.7,2.6-.4,1.4-.8,2.8-1.2,4.4h0Z"/>
          <path class="cls-1" d="M17.1,13.4c1.1-.3,1.6.4,2,1.4.5,1.4,1.2,2.9,1.8,4.3.2.4.2.8,0,1.2-.5.7-1,1.4-1.5,2-.4.5-.5.8-.1,1.4,2,3.4,4.9,5.8,8.5,7.3.6.2.9.2,1.2-.3.6-.8,1.3-1.5,1.9-2.3.4-.5.7-.6,1.3-.4,1.8.8,3.5,1.6,5.2,2.5.2.1.4.5.4.8,0,1.8-.5,3.3-2.1,4.3-2.1,1.4-4.3,1.5-6.6.8-5.9-1.7-10.3-5.4-13.8-10.3-1.1-1.5-2.1-3.1-2.5-4.9-.7-2.7,0-5.1,2-7.1.6-.6,1.4-.8,2.4-.7Z"/>
        </g>
      </g>
    </g>
  </g>
</svg>