<?xml version="1.0" encoding="UTF-8"?>
<svg id="Camada_2" xmlns="http://www.w3.org/2000/svg" viewBox="0 0 50 50">
  <defs>
    <style>
      .cls-1 {
        fill: #9f9370;
      }
    </style>
  </defs>
  <g id="Camada_1-2" data-name="Camada_1">
    <g>
      <path class="cls-1" d="M25,18.72c7.29,0,14.57,0,21.86-.01.44,0,.55.1.55.55-.02,8.9-.02,17.8,0,26.71,0,.45-.09.56-.55.56-4.54-.02-9.08-.02-13.62,0-.4,0-.5-.09-.5-.5.02-5.16,0-10.31.02-15.47,0-.45-.1-.57-.55-.56-1.96.03-3.91.03-5.87,0-.4,0-.5.09-.5.5.02,5.45,0,10.89.02,16.34,0,.45-.1.57-.55.56-1.18-.04-1.19-.01-1.19-1.21,0-5.21,0-10.42.01-15.63,0-.45-.1-.56-.55-.56-1.96.03-3.91.03-5.87,0-.4,0-.5.1-.49.5.02,5.16,0,10.31.02,15.47,0,.45-.11.56-.55.55-4.52-.02-9.05-.02-13.57,0-.45,0-.55-.11-.55-.56.01-8.9.01-17.8,0-26.71,0-.45.1-.56.55-.56,7.29.02,14.57.01,21.86.01ZM25,26.54c2.44,0,4.88,0,7.32,0,.35,0,.45-.09.44-.44-.03-.89-.02-1.77,0-2.66,0-.31-.08-.39-.39-.39-4.92,0-9.83,0-14.75,0-.3,0-.39.08-.38.39.02.87.03,1.74,0,2.6-.02.41.1.5.5.5,2.42-.02,4.85-.01,7.27-.01ZM12.08,23.98c0-.76,0-1.52,0-2.28,0-.25-.01-.39-.33-.38-1.51.02-3.01.02-4.52,0-.27,0-.32.09-.32.34.01,1.52.01,3.04,0,4.56,0,.27.09.33.34.33,1.51-.01,3.01-.01,4.52,0,.27,0,.33-.09.32-.34-.02-.74,0-1.48,0-2.23ZM40.51,26.54c.75,0,1.51-.01,2.26,0,.26,0,.33-.07.33-.33-.01-1.52-.01-3.04,0-4.56,0-.26-.07-.33-.33-.33-1.51.01-3.01.01-4.52,0-.26,0-.33.07-.33.33.01,1.52.01,3.04,0,4.56,0,.26.07.34.33.33.75-.02,1.51,0,2.26,0ZM12.08,32.67c0-.76,0-1.52,0-2.28,0-.24,0-.39-.33-.39-1.51.02-3.01.02-4.52,0-.26,0-.33.08-.33.34.01,1.52.01,3.04,0,4.56,0,.27.08.33.33.33,1.51-.01,3.01-.01,4.52,0,.26,0,.33-.08.33-.34-.02-.74,0-1.48,0-2.23ZM40.46,30.01c-.74,0-1.47.01-2.21,0-.25,0-.34.06-.33.33.01,1.52.01,3.04,0,4.56,0,.25.06.34.32.34,1.51-.01,3.01-.01,4.52,0,.25,0,.34-.06.33-.33-.01-1.52-.02-3.04,0-4.56,0-.33-.14-.34-.38-.33-.75,0-1.51,0-2.26,0ZM6.91,41.25c0,.78.01,1.56,0,2.33,0,.26.07.33.33.33,1.51-.01,3.01-.01,4.52,0,.26,0,.33-.07.33-.33-.01-1.52-.01-3.04,0-4.56,0-.26-.07-.33-.33-.33-1.51.01-3.01.01-4.52,0-.26,0-.34.07-.33.33.02.74,0,1.48,0,2.23ZM40.52,38.7c-.74,0-1.47.01-2.21,0-.29,0-.4.05-.4.37.02,1.48.02,2.97,0,4.45,0,.29.05.41.37.4,1.47-.02,2.94-.02,4.41,0,.29,0,.4-.05.4-.37-.02-1.48-.02-2.97,0-4.45,0-.36-.12-.41-.43-.4-.72.02-1.44,0-2.15,0Z"/>
      <path class="cls-1" d="M24.94,16.98c-8.13,0-16.26,0-24.39.01-.45,0-.57-.1-.55-.56.04-.85.03-1.7,0-2.55,0-.31.08-.39.39-.39,1.08.02,2.15,0,3.23,0,15.26,0,30.51,0,45.77-.01.49,0,.63.12.6.61-.04.79-.04,1.59,0,2.39.02.41-.1.5-.5.5-8.18-.01-16.37,0-24.55,0Z"/>
      <path class="cls-1" d="M25,49.99c-8.15,0-16.3,0-24.45.01-.45,0-.57-.1-.55-.55.03-1.19.01-1.19,1.2-1.19,16.06,0,32.13,0,48.19-.01.48,0,.62.11.61.61-.04,1.14-.01,1.14-1.14,1.14-7.95,0-15.9,0-23.85,0Z"/>
      <path class="cls-1" d="M31.58,3.4c-1.26,3.41-3.45,5.99-6.35,7.99-.17.12-.28.13-.46,0-2.75-1.91-4.88-4.33-6.16-7.47-.17-.41-.18-.56.32-.63,1.59-.25,3-.93,4.26-1.93.45-.36.91-.7,1.33-1.1.35-.34.59-.35.97-.01,1.02.9,2.06,1.79,3.33,2.35.87.39,1.78.65,2.77.8ZM25,2.22c-.32.6-.61,1.09-.85,1.61-.14.29-.32.43-.65.46-.61.05-1.22.16-1.93.26.54.49,1,.92,1.47,1.33.19.16.24.31.18.56-.13.58-.21,1.16-.34,1.85.61-.3,1.15-.54,1.66-.82.31-.17.58-.19.9,0,.51.29,1.05.52,1.67.82-.11-.66-.18-1.23-.32-1.78-.08-.33.02-.49.24-.69.46-.39.89-.8,1.4-1.27-.74-.1-1.35-.2-1.97-.26-.28-.03-.46-.13-.58-.39-.26-.53-.55-1.05-.88-1.67Z"/>
      <path class="cls-1" d="M22.42,11.77c-.26,0-.38,0-.5,0-4.27,0-8.54,0-12.81,0-.4,0-.52-.08-.5-.5.04-.88.02-1.77,0-2.66,0-.26.06-.34.33-.34,3.28,0,6.57,0,9.85,0,.22,0,.36.08.49.25.87,1.18,1.89,2.22,3.14,3.23Z"/>
      <path class="cls-1" d="M27.59,11.77c1.27-1.03,2.3-2.1,3.19-3.31.14-.19.3-.17.47-.17,3.24,0,6.49,0,9.73,0,.29,0,.4.05.4.37-.02.92-.01,1.84,0,2.76,0,.24-.03.35-.31.35-4.44,0-8.88,0-13.47,0Z"/>
    </g>
  </g>
</svg>