<?xml version="1.0" encoding="UTF-8"?>
<svg id="Camada_2" xmlns="http://www.w3.org/2000/svg" viewBox="0 0 50 50">
  <defs>
    <style>
      .cls-1 {
        fill: #9f9370;
      }
    </style>
  </defs>
  <g id="Camada_1-2" data-name="Camada_1">
    <g>
      <path class="cls-1" d="M0,32.45c.02-2.53.78-4.92,1.67-7.28.94-2.5,1.99-4.96,2.9-7.46,1.07-2.95,1.09-5.89-.43-8.74-.32-.59-.7-1.14-1.17-1.64-.48-.51-.48-.89.03-1.36,2.01-1.88,4.04-3.75,6.05-5.64.43-.4.85-.37,1.37-.16,2.56,1.03,5.22,1.61,8.03,1.49,2.11-.09,4.13-.51,5.98-1.49.35-.19.69-.24,1.05-.05,3.3,1.69,6.8,1.88,10.4,1.17,1.3-.25,2.55-.64,3.75-1.15.55-.24.98-.14,1.4.26,1.97,1.85,3.95,3.68,5.93,5.53.53.49.55.87.11,1.36-1.94,2.18-2.58,4.71-2.33,7.48.21,2.26,1.19,4.31,2.01,6.41,1.01,2.6,2.14,5.17,2.79,7.88.64,2.68.71,5.33-.51,7.9-1.28,2.67-3.48,4.49-6.22,5.81-2.52,1.21-5.23,1.98-7.93,2.74-2.22.63-4.47,1.17-6.59,2.09-1.03.45-2.01.97-2.56,1.99-.3.55-1.18.55-1.48,0-.54-1.01-1.49-1.53-2.51-1.97-2.13-.93-4.4-1.48-6.64-2.11-2.75-.79-5.51-1.56-8.08-2.82-2.93-1.44-5.2-3.45-6.37-6.41C.18,35.05,0,33.76,0,32.45ZM3.51,32.75c-.03,1.36.41,2.58,1.2,3.72,1.07,1.56,2.62,2.58,4.36,3.38,2.32,1.07,4.79,1.79,7.25,2.5,2.82.82,5.71,1.44,8.25,2.94.33.2.68.12,1-.06.66-.36,1.31-.73,2.01-1,2.77-1.07,5.69-1.7,8.52-2.59,2.2-.69,4.39-1.42,6.36-2.6,2.11-1.27,3.59-2.98,3.96-5.35.25-1.59-.13-3.14-.58-4.67-.75-2.52-1.85-4.93-2.8-7.38-1.15-2.94-1.99-5.92-1.81-9.08.1-1.71.42-3.37,1.5-4.82.31-.42.23-.82-.14-1.17-.92-.86-1.85-1.72-2.77-2.58-.32-.29-.67-.39-1.12-.27-1.01.29-2.04.53-3.09.69-3.46.54-6.86.46-10.13-.88-.37-.15-.71-.11-1.07.04-1.58.66-3.24,1-4.96,1.11-2.71.18-5.35-.17-7.94-.9-.64-.18-1.09-.06-1.54.38-.82.81-1.68,1.57-2.52,2.36-.47.45-.52.79-.14,1.29.57.77.92,1.62,1.13,2.52.64,2.76.36,5.49-.42,8.18-.78,2.71-1.96,5.29-2.98,7.93-.79,2.04-1.46,4.11-1.53,6.3Z"/>
      <path class="cls-1" d="M11.19,5.45c.68.16,1.27.31,1.87.43,3.94.79,7.83.76,11.64-.61.21-.07.37-.08.58,0,3.39,1.25,6.88,1.37,10.44.84.9-.14,1.79-.31,2.66-.57.33-.1.55-.03.78.2.47.47.97.91,1.46,1.36.15.14.25.25.12.48-1.3,2.29-1.43,4.77-1.27,7.29.24,3.51,1.64,6.73,2.91,9.98.74,1.88,1.57,3.74,2.01,5.72.12.54.21,1.09.27,1.64.22,2.23-.83,3.9-2.75,5.12-2.09,1.32-4.47,2.1-6.84,2.86-2.51.81-5.1,1.38-7.58,2.28-.75.27-1.47.57-2.16.97-.16.1-.3.23-.54.09-2.06-1.19-4.4-1.75-6.69-2.4-3.04-.86-6.07-1.76-8.89-3.15-1.16-.57-2.19-1.29-2.96-2.32-1.04-1.39-1.08-2.9-.79-4.48.46-2.49,1.56-4.8,2.46-7.16.85-2.22,1.78-4.41,2.24-6.73.54-2.79.66-5.58-.27-8.33-.16-.48-.37-.94-.64-1.38-.09-.14-.14-.25.03-.4.58-.51,1.14-1.05,1.71-1.57.08-.07.15-.16.2-.15ZM24.99,37.48c7.89,0,14.33-5.99,14.32-13.34,0-7.33-6.41-13.31-14.28-13.32-7.9-.02-14.34,5.96-14.35,13.31-.01,7.35,6.41,13.35,14.31,13.35Z"/>
      <path class="cls-1" d="M25,14.98c.45.03.7.27.88.62.69,1.34,1.39,2.68,2.07,4.02.15.29.32.43.7.47,1.61.17,3.21.4,4.81.59.41.05.7.21.84.58.14.38-.01.67-.3.93-1.19,1.05-2.37,2.11-3.56,3.16-.22.2-.3.37-.24.67.31,1.5.58,3,.88,4.5.08.38,0,.69-.34.92-.34.24-.68.2-1.04.02-1.42-.72-2.85-1.42-4.26-2.15-.31-.16-.54-.18-.86,0-1.38.72-2.78,1.4-4.17,2.1-.38.19-.75.32-1.15.05-.4-.27-.43-.63-.34-1.06.31-1.46.57-2.93.87-4.39.06-.28,0-.45-.22-.63-1.17-1.02-2.32-2.06-3.48-3.08-.31-.27-.57-.55-.42-.99.15-.46.52-.57.98-.63,1.59-.19,3.17-.41,4.76-.59.3-.03.45-.14.58-.39.69-1.36,1.4-2.71,2.09-4.07.19-.38.44-.63.91-.65Z"/>
    </g>
  </g>
</svg>