<?xml version="1.0" encoding="UTF-8"?>
<svg id="Camada_2" xmlns="http://www.w3.org/2000/svg" viewBox="0 0 50 50">
  <defs>
    <style>
      .cls-1 {
        fill: #e69e60;
      }
    </style>
  </defs>
  <g id="Camada_1-2" data-name="Camada_1">
    <g>
      <path class="cls-1" d="M.04,25.01c-.02-3.87-.14-7.74.19-11.6C.66,8.42,2.77,4.41,7.33,1.96,9.69.7,12.26.25,14.9.18c7.25-.17,14.5-.35,21.73.12,6.94.45,11.82,4.81,12.95,11.64.35,2.1.36,4.23.37,6.35.05,5.46.1,10.92-.07,16.38-.07,2.37-.35,4.71-1.29,6.91-1.88,4.44-5.3,6.97-9.97,7.88-2.75.54-5.56.5-8.35.51-5.07.01-10.14.08-15.21-.1-2.66-.09-5.24-.49-7.63-1.73-3.83-1.99-6.01-5.21-6.91-9.36-.45-2.07-.44-4.18-.48-6.28-.04-2.5-.01-5-.01-7.5ZM4.64,25.18c.04,2.17,0,4.35-.06,6.52-.06,1.92-.03,3.83.26,5.74.58,3.77,3.04,6.54,6.69,7.47,1.77.45,3.59.5,5.41.53,4.63.08,9.25.08,13.88.03,2.48-.03,4.97.02,7.42-.52,3.3-.73,5.53-2.64,6.47-5.94.42-1.47.63-2.98.64-4.51.03-5.68.22-11.36.1-17.05-.04-1.71-.08-3.42-.39-5.11-.73-3.99-2.99-6.36-6.97-7.26-1.67-.38-3.36-.43-5.06-.46-5.35-.09-10.69-.08-16.04,0-1.75.03-3.49.1-5.21.49-3.24.75-5.49,2.59-6.49,5.82-.41,1.31-.63,2.67-.64,4.04-.03,3.41,0,6.81,0,10.22Z"/>
      <path class="cls-1" d="M25.01,37.65c-6.68-.06-12.47-4.65-12.63-12.67-.14-6.88,5.69-12.59,12.63-12.58,6.92,0,12.72,5.68,12.6,12.55-.14,7.95-5.85,12.62-12.6,12.7ZM24.97,33.26c4.51,0,8.29-3.64,8.21-8.1-.1-5.58-4.21-8.26-8.17-8.27-3.93-.01-8.12,2.64-8.21,8.27-.07,4.43,3.69,8.09,8.17,8.1Z"/>
      <path class="cls-1" d="M38.33,8.57c1.81,0,3.16,1.33,3.16,3.13,0,1.79-1.35,3.15-3.15,3.16-1.79,0-3.16-1.35-3.17-3.14,0-1.79,1.35-3.14,3.15-3.15Z"/>
    </g>
  </g>
</svg>