<?xml version="1.0" encoding="UTF-8"?>
<svg id="Camada_2" xmlns="http://www.w3.org/2000/svg" viewBox="0 0 50 50">
  <defs>
    <style>
      .cls-1 {
        fill: #9f9370;
      }
    </style>
  </defs>
  <g id="Camada_1-2" data-name="Camada_1">
    <path class="cls-1" d="M0,32.42v-3.86c.13-.04.09-.16.11-.25.11-.69.17-1.38.33-2.05,1.72-7.33,5.94-12.18,12.67-14.51.29-.1.36-.25.36-.55-.02-1.03.01-2.05-.02-3.08,0-.36.1-.49.42-.52.84-.09,1.68-.24,2.52-.3.39-.03.44-.18.43-.53-.02-.57-.02-1.15,0-1.72.09-2.74,2.07-4.93,4.63-5,2.39-.06,4.78-.05,7.17,0,2.08.05,3.85,1.63,4.4,3.78.26,1.01.16,2.04.17,3.06,0,.29.07.37.35.39.87.08,1.74.21,2.62.31.28.03.41.13.4.48-.03,1.01.01,2.02-.02,3.03-.01.41.12.55.47.66,9.32,3.04,14.77,13.24,12.47,23.34-2.57,11.29-13.84,17.7-24.05,13.69-.29-.12-.54-.12-.83,0-3.24,1.27-6.56,1.53-9.93.83-7.31-1.52-13.09-7.9-14.39-15.81-.08-.46-.01-.96-.27-1.39ZM34.8,39.03c.12-.04.25-.07.37-.13,3.01-1.51,4.79-4.03,5.12-7.56.31-3.4-.91-6.18-3.44-8.28-.64-.53-1.34-.96-2.17-1.22,1.95,4.43,2.38,8.95,1.26,13.64-.29,1.21-.76,2.35-1.18,3.51-.02.02-.05.04-.07.05.04.06.08.04.11-.01ZM13.46,14.91c-.17.05-.31.09-.44.14-6.86,2.68-10.97,10.09-9.91,17.83,1.22,8.91,9.1,15.16,17.41,13.82,8.93-1.44,14.81-10.7,12.66-20.08-1.29-5.6-4.57-9.43-9.59-11.55-.39-.17-.49-.1-.48.35.03,1.1.03,2.19,0,3.29-.01.41.12.6.45.78,4.48,2.46,7,7.86,6.11,13.07-1.14,6.66-6.81,11.05-13.1,10.11-7.64-1.14-12.11-10.2-8.68-17.59,1.16-2.5,2.89-4.38,5.21-5.66.18-.1.38-.14.37-.46-.02-1.34,0-2.68,0-4.06ZM28.71,46.49c.11.05.17.09.23.1,1.76.32,3.53.37,5.29.04,9.35-1.73,15.05-11.79,12.04-21.35-1.56-4.95-4.71-8.34-9.27-10.23-.33-.14-.48-.15-.46.32.03,1.1.03,2.19,0,3.29,0,.41.1.62.46.83,3.74,2.17,5.89,5.53,6.24,10.05.5,6.49-3.83,12.2-9.86,13.12-.64.1-1.12.31-1.55.87-.88,1.14-1.95,2.08-3.11,2.97ZM16.38,30.27c0,3.37.81,6.31,2.4,9.01.16.27.32.39.62.33,1.08-.19,2.11-.54,3.08-1.1.27-.16.3-.24.11-.52-3.24-4.66-3.23-10.37.02-15.08.18-.26.13-.36-.1-.49-.97-.55-1.99-.93-3.08-1.09-.33-.05-.49.06-.66.34-1.56,2.69-2.37,5.61-2.38,8.6ZM25.02,3.15h0c-1.14,0-2.28-.02-3.41,0-1.08.02-1.85.87-1.87,2.03-.01.57.01,1.15,0,1.72,0,.28.08.34.33.36.89.09,1.77.22,2.66.32.29.03.41.14.4.49-.03,1.04,0,2.09-.02,3.13,0,.33.12.42.38.54.99.46,1.96.62,2.95.02.04-.02.09-.03.14-.03.25-.05.33-.19.33-.47-.02-1.06,0-2.12-.02-3.18,0-.34.11-.45.4-.49.89-.1,1.77-.23,2.66-.32.24-.02.34-.08.33-.36-.02-.5,0-1.01,0-1.51,0-1.44-.76-2.25-2.12-2.25-1.04,0-2.08,0-3.12,0ZM15.31,21.85c-3.36,1.21-6.3,5.25-5.53,10.18.49,3.13,3.57,7.02,5.48,6.91-1.19-2.7-1.81-5.52-1.8-8.51,0-2.98.63-5.8,1.85-8.59ZM23.11,30.48c0,1.97.6,3.9,1.64,5.41.2.3.3.29.5,0,2.18-3.13,2.18-7.65.02-10.82-.22-.32-.33-.32-.54,0-1.06,1.63-1.63,3.42-1.62,5.41ZM16.39,14.3c0,1.2,0,2.4,0,3.59,0,.23,0,.39.31.34,1.05-.17,2.1-.17,3.15,0,.26.04.34-.03.34-.32,0-2.38,0-4.76,0-7.14,0-.3-.1-.38-.36-.39-1.02-.05-2.04-.05-3.07,0-.31.01-.38.12-.37.43.02,1.16,0,2.33,0,3.49ZM33.61,14.36c0-1.18,0-2.36,0-3.54,0-.29-.04-.43-.36-.44-1.02-.04-2.04-.04-3.07,0-.3.01-.38.12-.38.43.01,1.35.02,2.71,0,4.06,0,.33.1.55.33.75.67.58,1.3,1.21,1.83,1.94.33.44.7.65,1.23.68.36.02.42-.08.42-.43-.02-1.15,0-2.29,0-3.44Z"/>
  </g>
</svg>