<?xml version="1.0" encoding="UTF-8"?>
<svg id="Camada_2" xmlns="http://www.w3.org/2000/svg" viewBox="0 0 50 50">
  <defs>
    <style>
      .cls-1 {
        fill: #9f9370;
      }
    </style>
  </defs>
  <g id="Camada_1-2" data-name="Camada_1">
    <g>
      <path class="cls-1" d="M38.5,27.97c0-.71-.11-1.4-.44-2.03-.89-1.72-2.34-2.52-4.27-2.52-7.15,0-14.31,0-21.46,0-.25,0-.49.08-.49-.36.03-2.34,0-4.69.02-7.03.02-1.94.7-3.64,2.08-5.01,2.11-2.09,4.66-2.79,7.51-1.9,2.89.91,4.61,2.94,5.11,5.93.21,1.27.06,2.57.09,3.85.02.99.61,1.59,1.6,1.59,1.89,0,3.78,0,5.67,0,1.02,0,1.61-.6,1.61-1.62,0-.81,0-1.63,0-2.44.01-3.76-1.06-7.18-3.41-10.16C29.44,2.87,25.93.83,21.61.16c-.29-.05-1.21-.14-1.7-.14l-1.09-.02c-.07,0-1.13.07-1.21.08-.28.03-.53.05-.77.09-3.7.57-6.84,2.2-9.41,4.87-2.09,2.17-3.43,4.73-4.09,7.65-.27,1.2-.37,2.41-.38,3.63,0,2.33,0,4.65,0,6.98,0,.22,0,.39-.26.5-1.36.57-2.2,1.6-2.58,3-.01.04-.01.09-.02.14-.06.2-.06.58-.06.79l-.04,17.99c0,.3.03.61.14.9.02.06.03.12.05.18.67,2.02,2.24,3.2,4.38,3.2,9.79,0,19.57.01,29.36,0,2.65,0,4.57-1.91,4.57-4.54.01-5.83,0-11.65,0-17.48ZM5.92,18.73c.05-1.41-.09-3.07.18-4.72.56-3.32,2.15-6.05,4.79-8.16,2.79-2.24,6.02-3.18,9.6-2.88,5.53.46,10.26,4.47,11.67,9.91.38,1.45.43,2.92.41,4.41,0,.22-.08.27-.28.27-.77-.01-1.55-.02-2.32,0-.32.01-.38-.09-.37-.38.03-1.29-.04-2.56-.37-3.82-1.29-4.93-6.55-8.32-11.62-7.38-4.51.84-7.33,3.54-8.49,7.93-.2.77-.25,1.57-.25,2.37,0,2.23,0,4.46.01,6.69,0,.42-.11.5-.66.43-.58-.07-1.17-.06-1.76,0-.45.05-.56,0-.56-.33.01-1.37,0-2.73,0-4.35ZM5.46,47.07c-.29,0-.59,0-.89,0-1-.01-1.6-.6-1.61-1.58,0-.93,0-1.85,0-2.78,0-4.85,0-9.69,0-14.54,0-1.28.53-1.81,1.82-1.81.64,0,1.15-.02,1.36-.02h3.19c6.61.02,13.23.02,19.84,0h3.85c.3,0,.56,0,.84,0,1.09,0,1.68.58,1.68,1.65,0,2.33,0,4.65,0,6.98,0,3.45,0,6.9,0,10.34,0,1.18-.56,1.73-1.74,1.73h-4.62c-6.61,0-13.23,0-19.84.01h-3.87Z"/>
      <path class="cls-1" d="M50,14.3c-.02.47-.25.93-.75,1.19-2.01,1.01-4.03,2.02-6.06,3-.73.35-1.57,0-1.91-.71-.34-.69-.11-1.52.61-1.89,2.01-1.03,4.02-2.04,6.06-3,.96-.46,2.05.28,2.06,1.41Z"/>
      <path class="cls-1" d="M50,31.7c-.01,1.11-.99,1.8-1.93,1.5-.12-.04-.25-.09-.36-.14-1.88-.93-3.75-1.86-5.62-2.78-.54-.27-.9-.66-.96-1.26-.11-1.09,1.04-1.94,2.06-1.46,2.04.96,4.05,1.98,6.07,3,.51.26.72.73.75,1.15Z"/>
      <path class="cls-1" d="M45.56,24.48c-.95,0-1.91,0-2.86,0-.92,0-1.58-.61-1.59-1.45,0-.85.65-1.48,1.6-1.48,1.89,0,3.78,0,5.67,0,.95,0,1.62.62,1.61,1.47,0,.85-.67,1.45-1.63,1.46-.94,0-1.87,0-2.81,0Z"/>
      <path class="cls-1" d="M17.23,41.44c0-.75,0-1.5,0-2.25,0-.23-.07-.34-.28-.43-3.18-1.5-3.64-5.42-.86-7.54,1.3-.99,2.79-1.14,4.29-.53,1.5.61,2.44,1.75,2.68,3.36.31,2.11-.64,3.79-2.6,4.71-.24.11-.28.26-.28.49,0,1.43,0,2.86,0,4.3,0,.99-.6,1.65-1.48,1.65-.88,0-1.47-.66-1.48-1.65,0-.7,0-1.4,0-2.1ZM18.73,33.28c-.8-.01-1.48.64-1.5,1.43-.02.79.63,1.47,1.43,1.49.82.02,1.52-.64,1.52-1.46,0-.79-.66-1.46-1.46-1.47Z"/>
    </g>
  </g>
</svg>