<?xml version="1.0" encoding="UTF-8"?>
<svg id="Camada_2" xmlns="http://www.w3.org/2000/svg" viewBox="0 0 49.88 37.67">
  <defs>
    <style>
      .cls-1 {
        fill: #9f9370;
      }
    </style>
  </defs>
  <g id="Camada_1-2" data-name="Camada_1">
    <g>
      <path class="cls-1" d="M0,8.9c.17-.09.14-.27.2-.41.53-1.22,1.44-1.98,2.78-2.03,1.78-.06,3.57-.01,5.35-.01.07.12-.04.15-.09.19-1.25.95-1.83,2.22-1.83,3.79.02,7.1.02,14.19.03,21.29,0,.26.01.53-.04.78-.16.71-.83,1.2-1.58,1.19-.73-.01-1.36-.49-1.52-1.2-.06-.25-.07-.51-.07-.77,0-7.36.01-14.71,0-22.07,0-.17.17-.49-.16-.5-.26,0-.41.23-.42.51,0,.24,0,.49,0,.73,0,2.94,0,5.88,0,8.82,0,.94-.52,1.54-1.31,1.55-.67,0-1.05-.41-1.36-.93v-10.91Z"/>
      <path class="cls-1" d="M27.97,23.22c0,4.21,0,8.41,0,12.62,0,.91-.59,1.64-1.41,1.8-.88.17-1.73-.28-2.05-1.1-.12-.31-.14-.63-.14-.96,0-4.53,0-9.06,0-13.59,0-.32-.02-.49-.43-.48-.38.01-.36.2-.36.46,0,4.6,0,9.19,0,13.79,0,1.12-.73,1.9-1.77,1.91-.89,0-1.63-.59-1.78-1.48-.04-.24-.04-.48-.04-.73,0-8.25.02-16.5.01-24.74,0-.17.17-.5-.14-.51-.29-.01-.5.22-.5.55,0,.13,0,.26,0,.39,0,3.47,0,6.95,0,10.42,0,1.18-.99,1.92-2.02,1.54-.57-.21-.98-.75-.98-1.38,0-3.72-.03-7.44,0-11.15.02-1.7,1.41-3.15,3.09-3.35.21-.02.42-.05.63-.05,2.58,0,5.16-.01,7.74,0,1.85.01,3.23,1.07,3.65,2.76.07.29.08.58.08.87,0,3.59,0,7.18,0,10.77,0,.68-.25,1.2-.88,1.49-.57.27-1.11.16-1.59-.23-.43-.35-.51-.83-.51-1.36,0-2.66,0-5.33,0-7.99,0-.86,0-1.72,0-2.58,0-.3-.08-.54-.37-.68-.19-.09-.31-.09-.29.17,0,.11,0,.23,0,.34,0,4.16,0,8.31,0,12.47h0Z"/>
      <path class="cls-1" d="M30.68,6.84c2.27,0,4.38-.02,6.49,0,1.8.02,3.26,1.45,3.28,3.25.03,3.51.02,7.01.01,10.52,0,.86-.63,1.46-1.44,1.44-.8-.01-1.4-.63-1.4-1.5,0-3.34,0-6.69,0-10.03,0-.16.01-.33-.03-.48-.07-.21-.26-.38-.47-.35-.21.04-.1.27-.1.41,0,7.94,0,15.88,0,23.82,0,1.04-.55,1.73-1.46,1.88-.98.16-1.9-.57-1.94-1.57-.02-.53,0-1.07,0-1.61,0-3.88,0-7.76,0-11.64,0-.37-.03-.6-.48-.52-.38.07-.32-.2-.32-.42,0-2.76-.05-5.52.02-8.28.05-1.96-.37-3.66-2.15-4.93Z"/>
      <path class="cls-1" d="M14.12,10.29c-.16-.5-.03-.97.05-1.45.07-.4.34-.31.59-.31.23,0,.49-.07.55.31.05.32.11.63,0,.95-.13.39-.13.8-.13,1.2,0,2.99,0,5.97.01,8.96,0,.4-.05.62-.51.54-.41-.07-.28.25-.28.44,0,3.59,0,7.17,0,10.76,0,.7-.03,1.4,0,2.09.07,1.36-.81,2.04-1.71,2.06-.82.01-1.74-.6-1.73-2.03.04-7.84.03-15.68.03-23.52,0-.11,0-.23,0-.34.03-.34-.14-.3-.35-.19-.29.16-.3.43-.3.72,0,3.3,0,6.59,0,9.89,0,.24.01.49-.07.72-.22.63-.79,1.01-1.46.97-.64-.04-1.17-.53-1.29-1.19-.01-.08-.02-.16-.02-.24,0-3.51-.02-7.01.01-10.52.02-1.78,1.5-3.21,3.28-3.26.49-.01.97.01,1.46-.01.32-.02.45.07.51.4.13.75.36,1.48.68,2.17.16.33.33.66.67.89Z"/>
      <path class="cls-1" d="M45.15,13.37c.46,2.64.91,5.27,1.37,7.89.13.74-.14,1.08-.88,1.09q-.84.01-.84.87c0,2.89,0,5.78,0,8.67,0,1.2-.99,1.98-2.07,1.66-.7-.21-1.13-.82-1.13-1.63,0-2.97,0-5.94,0-8.91,0-.44.03-.82-.73-.64.72-.81.7-1.69.69-2.57,0-3.05-.02-6.1,0-9.15.02-1.71-.55-3.1-2.06-4.19.47,0,.83,0,1.19,0,.91,0,1.82.01,2.73,0,1.12-.02,1.96.47,2.57,1.39.27.41.47.85.63,1.31,1.04,2.89,2.07,5.79,3.12,8.68.2.55.18,1.05-.23,1.5-.36.39-.82.52-1.33.38-.5-.13-.78-.48-.95-.96-.6-1.67-1.21-3.35-1.82-5.02-.05-.14-.04-.33-.27-.37Z"/>
      <path class="cls-1" d="M32.79,22.54c0,1.59.02,3.18.02,4.77,0,2.24,0,4.48,0,6.71,0,1.24-.92,2.02-2.05,1.78-.74-.16-1.31-.81-1.32-1.6-.02-3.21,0-6.42-.01-9.63,0-.2.04-.27.27-.25,1.45.14,2.37-.42,2.99-1.79.03,0,.07.01.1.02Z"/>
      <path class="cls-1" d="M15.28,22.46c.05.11.09.22.14.33.5,1.06,1.62,1.69,2.78,1.53.32-.04.34.06.34.32,0,3.15,0,6.29,0,9.44,0,1.01-.73,1.76-1.68,1.77-.95,0-1.66-.74-1.66-1.77,0-3.86,0-7.72,0-11.58.03-.01.06-.02.09-.03Z"/>
      <path class="cls-1" d="M23.98,0c1.72,0,3.1,1.36,3.1,3.07,0,1.73-1.38,3.12-3.12,3.11-1.71,0-3.09-1.39-3.09-3.1,0-1.71,1.39-3.08,3.1-3.08Z"/>
      <path class="cls-1" d="M38.14,23.02c1.01.31,1.92.13,2.71-.59.12.15.06.3.06.44,0,3.02,0,6.04,0,9.05,0,.67-.27,1.2-.87,1.52-.56.3-1.12.24-1.66-.11-.19-.12-.29-.26-.29-.51,0-3.21,0-6.42,0-9.64,0-.05.02-.09.04-.15Z"/>
      <path class="cls-1" d="M7.15,22.52c1.29.7,1.59.76,2.66.52.1.13.05.28.05.42,0,3.12,0,6.24.01,9.35,0,.4-.15.59-.49.73-.98.4-2.03-.18-2.21-1.23-.02-.1-.03-.19-.03-.29,0-3.02,0-6.04,0-9.06,0-.13,0-.26,0-.44Z"/>
      <path class="cls-1" d="M14.74,0c1.64,0,2.98,1.32,2.97,2.95,0,1.61-1.33,2.93-2.94,2.93-1.64,0-2.98-1.32-2.97-2.95C11.81,1.32,13.12,0,14.74,0Z"/>
      <path class="cls-1" d="M30.28,2.92c.01-1.63,1.32-2.92,2.96-2.91,1.65,0,2.94,1.33,2.92,2.99-.02,1.62-1.34,2.9-2.98,2.89-1.62-.01-2.91-1.33-2.9-2.97Z"/>
      <path class="cls-1" d="M9.57,2.78c0,1.53-1.23,2.74-2.76,2.75-1.54,0-2.8-1.26-2.78-2.79C4.05,1.2,5.3-.02,6.85,0c1.53.02,2.73,1.25,2.72,2.78Z"/>
      <path class="cls-1" d="M41.21,5.58c-1.51-.02-2.73-1.28-2.72-2.8.02-1.5,1.28-2.75,2.78-2.74,1.51.02,2.75,1.28,2.75,2.78,0,1.53-1.28,2.77-2.81,2.75Z"/>
      <path class="cls-1" d="M14.84,6.84c.2.11.65-.24.68.3.05.83-.18,1.16-.75,1.16-.58,0-.82-.34-.8-1.17q0-.29.87-.29Z"/>
      <path class="cls-1" d="M32.79,22.54s-.07-.01-.1-.02c.04-.12.07-.24.1-.33v.34Z"/>
    </g>
  </g>
</svg>