<?xml version="1.0" encoding="UTF-8"?>
<svg xmlns="http://www.w3.org/2000/svg" version="1.1" viewBox="0 0 143.2 75.9">
  <defs>
    <style>
      .cls-1, .cls-2, .cls-3, .cls-4, .cls-5 {
        fill: #e1c5a3;
      }

      .cls-1, .cls-6, .cls-3, .cls-4, .cls-7, .cls-5, .cls-8 {
        isolation: isolate;
      }

      .cls-1, .cls-6, .cls-3, .cls-4, .cls-5, .cls-8 {
        font-size: 12px;
      }

      .cls-1, .cls-3, .cls-4, .cls-5 {
        font-family: Rubik-Regular, Rubik;
      }

      .cls-6, .cls-8 {
        fill: #e1c5b2;
        font-family: ArialMT, Arial;
      }

      .cls-3 {
        letter-spacing: 0em;
      }

      .cls-4 {
        letter-spacing: 0em;
      }

      .cls-5 {
        letter-spacing: 0em;
      }

      .cls-8 {
        letter-spacing: 0em;
      }
    </style>
  </defs>
  <!-- Generator: Adobe Illustrator 28.6.0, SVG Export Plug-In . SVG Version: 1.2.0 Build 709)  -->
  <g>
    <g id="Camada_2">
      <g id="Camada_1-2">
        <g id="Camada_1-3">
          <g id="Camada_1-2-2" data-name="Camada_1-2">
            <g>
              <path class="cls-2" d="M64.5,42.1c.8.6,1.8,1,2.9,1.1,4,.6,7.6-1.8,8.5-5.6,0-.5.2-1.1.2-1.7v-5.9c0-.4-.2-.7-.5-1-1.5-1.5-3.1-3-4.7-4.5-.4-.3-.5-.6-.5-1.1v-7.9c0-.5,0-.8-.5-1.1,0,0-.2-.2-.3-.3-.7-.4-.6-1.1-.5-1.8,0-.4.4-.5.6-.2.7.6,1.4,1.3,2.1,2,.2.2.2.5.2.7v8.1c0,.4,0,.7.4.9,1.5,1.5,3.1,3,4.6,4.5.4.4.5.7.5,1.2v6.6c0,3.6-2.3,6.8-5.8,8-3.2,1.1-6.1.6-8.8-1.4-.2,0-.3-.2-.5-.4s-.3-.4,0-.6c.8-.8,1.6-1.5,2.4-2.3.3-.3.5,0,.7,0,1,.8,2.1,1.1,3.4,1,2.1,0,3.9-1.7,4.2-3.7v-7c0-.3,0-.6.3-.7.3-.1.5.2.6.4.5.3.6.8.6,1.3v5.2c0,2.9-2,5.2-4.8,5.8-1.5.3-2.8.2-4.2-.5-.4-.2-.6-.2-.9,0s-.4.3-.5.6v.2h0Z"/>
              <path class="cls-2" d="M74.2,4.4h17.4c1.2,0,2.1.4,2.9,1.2,1.1,1.1,1.3,2.8.5,4.2-.8,1.4-2.4,2.1-4.1,1.8-1.5-.3-2.7-1.5-2.9-3,0-.3.2-.5.5-.5h.4c.4,0,.5,0,.6.5.4,1.4,1.7,2.2,3.1,1.7,1.1-.4,1.6-1.3,1.5-2.4,0-1-.9-1.8-2-1.9h-35.9c-1.2,0-2.1,1.1-2.1,2.2s.8,2.1,2,2.3,2.3-.5,2.6-1.5c0-.2,0-.5.2-.6.2-.2.5,0,.8,0s.5.2.5.5c-.2,1.5-1.5,2.8-3.1,3.1-1.7.2-3.4-.6-4-2.1-1.1-2.3.6-5,3.4-5h17.7v-.5h0Z"/>
              <path class="cls-2" d="M56.4,13.8c-.3.2-.4.5-.5.7-2,3.4-3.9,6.8-5.9,10.2-.3.5-.7.7-1.4.6,2.5-4.5,5.1-8.9,7.7-13.4,2.6,4.5,5.2,8.9,7.7,13.4-.6.1-1,0-1.3-.4-2-3.4-4-6.9-5.9-10.3,0-.2-.2-.5-.5-.7h0Z"/>
              <path class="cls-2" d="M84.4,25.3c2.5-4.4,5.1-8.9,7.7-13.4,2.5,4.5,5.1,8.9,7.6,13.3-.8.3-.9.2-1.3-.4-2-3.4-4-6.9-5.9-10.3-.2-.2-.3-.5-.5-.7-.2.2-.3.4-.5.6-2,3.4-4,6.9-5.9,10.3-.3.5-.7.6-1.4.5h0Z"/>
              <path class="cls-2" d="M74.2,8.9h-10c-.3,0-.4,0-.4-.4,0-.9,0-1,.9-1h19.4c.3,0,.4,0,.4.4,0,1.1,0,1-.9,1h-9.4Z"/>
              <path class="cls-2" d="M48.6,26.1h15.4c-.3.7-.6,1.2-1.1,1.7s-.5.1-.7.1h-11.9c-.4,0-.7,0-.9-.4-.3-.4-.5-.8-.8-1.4h0Z"/>
              <path class="cls-2" d="M84.4,26.1h15.2c-.2.7-.5,1.2-1,1.6-.2.2-.5.1-.7.1h-12c-.5,0-.7-.1-.9-.4-.3-.4-.5-.8-.7-1.3,0,0,0,0,0,0Z"/>
              <path class="cls-2" d="M69.3,9.9c.5-.1,1.2,0,1.7,0s.4.1.5.3c1,1,2,1.9,3,2.9.3.2.4.5.4.8v9.8c0,.4-.4.5-.6.2-.5-.4-.9-.9-.9-1.6v-7.7c0-.4,0-.7-.5-1-1.1-1-2.1-2-3.1-3-.2-.2-.4-.3-.5-.6h0s0-.1,0-.1Z"/>
              <path class="cls-2" d="M76.1,20v-5c0-.4,0-.7.5-1,.5-.5,1.1-1,1.6-1.6s.3-.3.5-.2c.3,0,.2.3.3.5,0,.7,0,1.2-.6,1.6-.6.4-.7,1-.7,1.6v9.8c0,.3.2.7-.2.8-.4.2-.5-.2-.7-.4-.5-.3-.5-.7-.5-1.2v-5h0s0,.1,0,.1Z"/>
              <path class="cls-2" d="M72,32.2v4.1c0,1.5-1.1,2.7-2.5,3h-.2c-.3,0-.6.2-.9,0-.2-.3,0-.7,0-1,0-.2.3-.2.4-.2,1.3-.3,1.7-.8,1.7-2.1v-8.5c0-.3-.2-.7.2-.8.4-.2.5.2.7.4.4.3.5.6.5,1.1v4.1s.2,0,.2,0Z"/>
              <path class="cls-2" d="M51,28.9h10.7c-2.3,2.3-7.5,2.7-10.7,0Z"/>
              <path class="cls-2" d="M86.6,28.9h10.6c-2.2,2.2-7.3,2.8-10.6,0h0Z"/>
              <path class="cls-2" d="M74.1,1.4h4.8c.4,0,.6.2.6.6v.3c0,.4-.2.5-.5.5h-9.8c0,0-.3,0-.3-.2v-.9c0,0,0-.2.3-.2h5s0-.1,0-.1Z"/>
              <path class="cls-2" d="M78.9,9.9c-1,.9-1.8,1.7-2.6,2.5-.3.2-.5.2-.7,0,0-.1-.3-.2-.4-.3-.3-.2-.2-.4,0-.7.5-.4.9-.9,1.4-1.3,0-.1.3-.2.4-.2h2Z"/>
              <g class="cls-7">
                <g class="cls-7">
                  <g class="cls-7">
                    <text class="cls-1" transform="translate(8.1 58.7) scale(1.4 1)"><tspan x="0" y="0">C</tspan></text>
                    <text class="cls-1" transform="translate(18.9 58.7) scale(1.4 1)"><tspan x="0" y="0">AR</tspan></text>
                    <text class="cls-3" transform="translate(40.5 58.7) scale(1.4 1)"><tspan x="0" y="0">L</tspan></text>
                    <text class="cls-1" transform="translate(49.5 58.7) scale(1.4 1)"><tspan x="0" y="0">OS </tspan></text>
                    <text class="cls-1" transform="translate(74.2 58.7) scale(1.4 1)"><tspan x="0" y="0">B</tspan></text>
                    <text class="cls-4" transform="translate(85 58.7) scale(1.4 1)"><tspan x="0" y="0">A</tspan></text>
                    <text class="cls-1" transform="translate(94.7 58.7) scale(1.4 1)"><tspan x="0" y="0">TI</tspan></text>
                    <text class="cls-1" transform="translate(110.4 58.7) scale(1.4 1)"><tspan x="0" y="0">S</tspan></text>
                    <text class="cls-4" transform="translate(118.6 58.7) scale(1.4 1)"><tspan x="0" y="0">T</tspan></text>
                    <text class="cls-5" transform="translate(126.9 58.7) scale(1.4 1)"><tspan x="0" y="0">A</tspan></text>
                  </g>
                </g>
              </g>
              <g class="cls-7">
                <g class="cls-7">
                  <g class="cls-7">
                    <text class="cls-6" transform="translate(39.1 73.4) scale(.9 1)"><tspan x="0" y="0">ADVOCACI</tspan></text>
                    <text class="cls-8" transform="translate(96 73.4) scale(.9 1)"><tspan x="0" y="0">A</tspan></text>
                  </g>
                </g>
              </g>
            </g>
          </g>
          <text/>
        </g>
      </g>
    </g>
  </g>
</svg>