<?xml version="1.0" encoding="UTF-8"?>
<svg id="Camada_2" xmlns="http://www.w3.org/2000/svg" viewBox="0 0 360.52 205.49">
  <defs>
    <style>
      .cls-1 {
        fill: #fff;
      }
    </style>
  </defs>
  <g id="Camada_1-2" data-name="Camada_1">
    <path class="cls-1" d="M360.52,185.16c-1.63,1.66-1.52,4.04-2.53,6-7.68,15.04-25.99,18.98-38.99,8.28-1.36-1.12-2.62-2.35-3.87-3.59-44.07-44.06-88.16-88.11-132.14-132.26-2.32-2.33-3.41-2.12-5.6.07-44.25,44.38-88.59,88.68-132.88,133.01-7.68,7.69-16.55,10.76-27.21,7.49-16.04-4.92-22.64-25.43-12.42-38.73,1.21-1.58,2.54-3.08,3.95-4.48C59.53,110.24,110.24,59.53,160.96,8.83c9.53-9.53,21.13-11.43,31.99-5.31,2.47,1.39,4.55,3.3,6.54,5.3,50.71,50.7,101.4,101.43,152.16,152.08,4.33,4.32,7.06,9.4,8.87,15.1v9.16Z"/>
  </g>
</svg>